<?xml version="1.0" encoding="iso-8859-1"?>
<!-- Uploaded to: SVG Repo, www.svgrepo.com, Generator: SVG Repo Mixer Tools -->
<!DOCTYPE svg PUBLIC "-//W3C//DTD SVG 1.1//EN" "http://www.w3.org/Graphics/SVG/1.1/DTD/svg11.dtd">
<svg fill="#000000" version="1.1" id="Capa_1" xmlns="http://www.w3.org/2000/svg" xmlns:xlink="http://www.w3.org/1999/xlink" 
	 width="800px" height="800px" viewBox="0 0 193.03 193.031"
	 xml:space="preserve">
<g>
	<g>
		<g>
			<path d="M184.098,96.174c-0.05-5.312-0.105-10.623-0.118-15.934c-0.031-13.951,2.977-28.119-2.926-41.258
				c-0.32-0.713-1.229-0.735-1.803-0.342c-2.272-0.85-5.129-0.486-7.403-0.478c-5.481,0.02-10.964,0.194-16.444,0.276
				c-17.081,0.255-34.089-2.028-51.212-1.434c-17.603,0.61-35.079,0.261-52.681-0.401c-15.729-0.592-31.999-1.779-47.643,0.54
				c-0.967-0.622-2.543-0.4-3.042,0.692c-1.201,2.63-0.67,5.802-0.699,8.65c-0.035,3.502-0.027,6.998-0.125,10.502
				c-0.048,1.722,2.068,2.389,3.202,1.545c21.189,4.664,42.603,2.145,64.057,0.719c14.824-0.985,28.941-0.364,43.639,1.218
				c14.228,1.531,28.48,3.131,42.796,3.507c2.603,0.068,6.698,0.365,10.815,0.158c0.23,0.557,0.647,1.032,1.253,1.197
				c4.227,1.15,9.192,1.161,13.709,1.182c-0.179,10.069-0.638,20.159-0.635,30.185c-0.092,0.028-0.175,0.039-0.269,0.069
				c-0.887,0.285-1.693,1.076-1.955,2.002c-11.688,7.142-7.828,32.899-6.173,43.774c0.123,0.809,1.063,1.771,1.881,1.881
				c4.876,0.658,9.702,0.814,14.624,0.832c1.202,0.004,2.327-0.836,2.635-2.006C191.857,134.557,198.315,98.368,184.098,96.174z"/>
		</g>
		<path d="M162.11,72.844c-0.245-0.172-0.521-0.325-0.856-0.435c-8.332-2.742-18.084-1.337-26.717-1.445
			c-13.32-0.167-26.413,0.529-39.72,1.102C74.669,72.935,54.76,69.375,34.69,68.68c-0.931-0.032-1.607,0.473-1.986,1.159
			c-0.663-0.276-1.426-0.275-2.146,0.205c-5.917,3.948-5.181,17.147-5.63,23.217c-0.734,9.919-2.147,21.414-0.166,31.248
			c1.986,9.865,13.607,7.703,20.887,7.513c18.641-0.486,35.031,10.848,46.746,24.386c0.994,1.148,3.128,1.133,4.124,0
			c8.912-10.133,21.069-16.506,33.599-21.068c5.89-2.146,11.803-3.603,18.098-3.602c3.739,0.001,8.012,2.561,11.513,2.148
			c1.275-0.15,2.165-0.926,2.547-1.873c0.967-0.157,1.831-0.86,1.729-2.006c-0.803-8.955-0.912-17.793-0.613-26.774
			c0.133-4.009,0.394-8.018,0.616-12.023c0.133-2.392-0.488-8.297,0.153-11.85c0.36-0.375,0.629-0.876,0.701-1.509
			c0.084-0.741,0.467-1.359,0.493-2.151C165.412,74.016,163.675,72.707,162.11,72.844z"/>
	</g>
</g>
</svg>